<?xml version="1.0" encoding="utf-8"?>
<!-- Generator: Adobe Illustrator 16.0.3, SVG Export Plug-In . SVG Version: 6.00 Build 0)  -->
<!DOCTYPE svg PUBLIC "-//W3C//DTD SVG 1.1//EN" "http://www.w3.org/Graphics/SVG/1.1/DTD/svg11.dtd">
<svg version="1.1" id="Ebene_1" xmlns="http://www.w3.org/2000/svg" xmlns:xlink="http://www.w3.org/1999/xlink" x="0px" y="0px"
	 width="53px" height="49.795px" viewBox="0 0 53 49.795" enable-background="new 0 0 53 49.795" xml:space="preserve">
<path fill="#FFFFFF" d="M49.096,11.276l-4.486-1.977c-0.282-0.871-0.746-1.656-1.348-2.318l0.531-4.888l-3.979,2.912
	c-0.416-0.085-0.85-0.13-1.289-0.13c-0.461,0-0.907,0.051-1.342,0.143l-3.996-2.924l0.539,4.958c-0.56,0.636-0.994,1.384-1.27,2.208
	l-2.898,1.278l1.963,2.34l0.943,0.416c0.271,0.819,0.706,1.563,1.266,2.196l-0.004,0.021l2.365,2.82l1.105-0.809
	c0.429,0.093,0.871,0.141,1.326,0.141c0.438,0,0.863-0.045,1.275-0.128l3.99,2.922l-0.53-4.897c0.597-0.658,1.062-1.438,1.343-2.304
	L49.096,11.276z M38.605,15.957c-2.521,0-4.566-2.045-4.566-4.567s2.045-4.568,4.566-4.568c2.522,0,4.567,2.045,4.567,4.568
	C43.174,13.912,41.129,15.957,38.605,15.957z"/>
<g>
	<polygon fill="#FFFFFF" points="41.027,24.315 33.451,24.315 33.451,40.315 16.451,40.315 16.451,23.315 9.521,23.315 
		3.451,30.755 3.451,47.315 49.451,47.315 49.451,35.248 	"/>
</g>
<polygon fill="#FFFFFF" points="15.556,20.523 20.305,20.523 20.305,32.747 30.041,32.747 30.041,20.799 34.79,20.799 25.292,9.469 
	"/>
</svg>
