<?xml version="1.0" encoding="utf-8"?>
<!-- Generator: Adobe Illustrator 16.0.3, SVG Export Plug-In . SVG Version: 6.00 Build 0)  -->
<!DOCTYPE svg PUBLIC "-//W3C//DTD SVG 1.1//EN" "http://www.w3.org/Graphics/SVG/1.1/DTD/svg11.dtd">
<svg version="1.1" id="Ebene_1" xmlns="http://www.w3.org/2000/svg" xmlns:xlink="http://www.w3.org/1999/xlink" x="0px" y="0px"
	 width="50px" height="50px" viewBox="0 0 50 50" enable-background="new 0 0 50 50" xml:space="preserve">
<g>
	<polygon fill="#FFFFFF" points="23.806,28.439 16.324,18.243 5,31.005 5,44.718 45,44.718 45,34.83 34.239,23.811 	"/>
</g>
<path fill="#FFFFFF" enable-background="new    " d="M43.95,14.254l-3.802-1.995c-0.194-0.778-0.554-1.491-1.038-2.104l0.756-4.24
	l-3.648,2.307c-0.359-0.1-0.734-0.165-1.119-0.191c-0.403-0.028-0.797-0.009-1.182,0.045l-3.316-2.794l0.175,4.365
	c-0.526,0.522-0.953,1.15-1.239,1.854l-4.116,1.49l3.879,2.036c0.189,0.731,0.523,1.408,0.976,1.994l-0.77,4.308l3.677-2.325
	c0.371,0.106,0.755,0.175,1.152,0.203c0.383,0.026,0.758,0.012,1.123-0.037l3.313,2.792l-0.172-4.312
	c0.559-0.54,1.011-1.193,1.309-1.932L43.95,14.254z M34.507,17.718c-2.205-0.15-3.868-2.06-3.718-4.263
	c0.149-2.203,2.058-3.869,4.263-3.719c2.204,0.15,3.869,2.06,3.719,4.263C38.618,16.204,36.711,17.869,34.507,17.718z"/>
</svg>
