<?xml version="1.0" encoding="UTF-8" standalone="no"?>
<!-- Created with Inkscape (http://www.inkscape.org/) -->

<svg
   xmlns:dc="http://purl.org/dc/elements/1.1/"
   xmlns:cc="http://creativecommons.org/ns#"
   xmlns:rdf="http://www.w3.org/1999/02/22-rdf-syntax-ns#"
   xmlns:svg="http://www.w3.org/2000/svg"
   xmlns="http://www.w3.org/2000/svg"
   xmlns:sodipodi="http://sodipodi.sourceforge.net/DTD/sodipodi-0.dtd"
   xmlns:inkscape="http://www.inkscape.org/namespaces/inkscape"
   id="svg2"
   version="1.1"
   inkscape:version="0.48.4 r9939"
   width="155"
   height="185"
   xml:space="preserve"
   sodipodi:docname="us.ai"><metadata
     id="metadata8"><rdf:RDF><cc:Work
         rdf:about=""><dc:format>image/svg+xml</dc:format><dc:type
           rdf:resource="http://purl.org/dc/dcmitype/StillImage" /><dc:title></dc:title></cc:Work></rdf:RDF></metadata><defs
     id="defs6"><clipPath
       clipPathUnits="userSpaceOnUse"
       id="clipPath16"><path
         d="M 0,148 124,148 124,0 0,0 0,148 z"
         id="path18" /></clipPath></defs><sodipodi:namedview
     pagecolor="#ffffff"
     bordercolor="#666666"
     borderopacity="1"
     objecttolerance="10"
     gridtolerance="10"
     guidetolerance="10"
     inkscape:pageopacity="0"
     inkscape:pageshadow="2"
     inkscape:window-width="1280"
     inkscape:window-height="1000"
     id="namedview4"
     showgrid="false"
     inkscape:zoom="1.2756757"
     inkscape:cx="77.5"
     inkscape:cy="92.5"
     inkscape:window-x="0"
     inkscape:window-y="24"
     inkscape:window-maximized="1"
     inkscape:current-layer="g10" /><g
     id="g10"
     inkscape:groupmode="layer"
     inkscape:label="us"
     transform="matrix(1.25,0,0,-1.25,0,185)"><g
       id="g20"
       transform="translate(50,30)"
       style="fill:none;fill-opacity:1;stroke:#ffffff;stroke-opacity:1"><path
         d="M 0,0 0,-24.87 C 0,-26.047 0.954,-27 2.13,-27 l 66.74,0 c 1.176,0 2.13,0.953 2.13,2.13 l 0,137.74 c 0,1.176 -0.954,2.13 -2.13,2.13 L 2.13,115 C 0.954,115 0,114.046 0,112.87 L 0,87"
         style="fill:none;stroke:#ffffff;stroke-width:6;stroke-linecap:butt;stroke-linejoin:miter;stroke-miterlimit:10;stroke-opacity:1;stroke-dasharray:none;fill-opacity:1"
         id="path22"
         inkscape:connector-curvature="0" /></g><g
       id="g24"
       transform="translate(50.0508,109.3096)"
       style="fill:#ffffff;fill-opacity:1"><path
         d="m 0,0 c -0.535,-0.534 -0.949,-7.31 -1.201,-16.31 l -48.048,0 c -0.602,0 -0.802,-0.631 -0.802,-1.234 l 0,-34.143 c 0,-0.6 0.2,-1.623 0.802,-1.623 l 47.926,0 c 0.207,-9 0.633,-15.984 1.323,-16.673 2.195,-2.196 41.491,34.996 41.491,34.996 C 41.491,-34.987 1.716,1.716 0,0"
         style="fill:#ffffff;fill-opacity:1;fill-rule:nonzero;stroke:none"
         id="path26"
         inkscape:connector-curvature="0" /></g></g></svg>