<?xml version="1.0" encoding="utf-8"?>
<!-- Generator: Adobe Illustrator 16.0.3, SVG Export Plug-In . SVG Version: 6.00 Build 0)  -->
<!DOCTYPE svg PUBLIC "-//W3C//DTD SVG 1.1//EN" "http://www.w3.org/Graphics/SVG/1.1/DTD/svg11.dtd">
<svg version="1.1" id="Ebene_1" xmlns="http://www.w3.org/2000/svg" xmlns:xlink="http://www.w3.org/1999/xlink" x="0px" y="0px"
	 width="123.004px" height="122.999px" viewBox="0 0 123.004 122.999" enable-background="new 0 0 123.004 122.999"
	 xml:space="preserve">
<g>
	<g>
		<g>
			<g>
				<path fill="#FFFFFF" d="M100.862,115.446c-0.45,0.433-1.173,0.418-1.606-0.031L68.645,83.674
					c-0.434-0.449-0.42-1.171,0.03-1.604l14.552-13.984c0.45-0.434,1.173-0.419,1.606,0.03l30.616,31.741
					c0.434,0.449,0.42,1.171-0.03,1.604L100.862,115.446z"/>
			</g>
		</g>
	</g>
	<g>
		<path fill="#FFFFFF" d="M7.254,46.625c-0.122-4.141,0.428-8.382,1.739-12.561c6.306-20.152,27.758-31.381,47.916-25.07
			c15.97,4.993,26.335,19.506,26.812,35.352c0.117,4.144-0.43,8.38-1.741,12.561c-6.308,20.154-27.761,31.385-47.914,25.076
			C18.093,76.981,7.728,62.468,7.254,46.625 M17.615,46.317c0.353,11.866,8.21,22.225,19.547,25.772
			c7.101,2.226,14.649,1.542,21.248-1.902c6.593-3.456,11.455-9.273,13.679-16.379c0.934-2.986,1.363-6.067,1.273-9.154
			c-0.358-11.868-8.212-22.225-19.552-25.771c-7.106-2.223-14.651-1.544-21.246,1.903c-6.6,3.456-11.457,9.271-13.68,16.374v0.003
			C17.948,40.146,17.522,43.231,17.615,46.317L17.615,46.317z"/>
	</g>
</g>
<g>
	<polygon fill="#FFFFFF" points="65.949,49.581 25.019,49.58 25.017,41.393 65.952,41.404 	"/>
	<rect x="41.395" y="25.021" fill="#FFFFFF" width="8.176" height="40.93"/>
</g>
</svg>
